<?xml version="1.0" encoding="UTF-8"?>
<svg id="Layer_1" xmlns="http://www.w3.org/2000/svg" version="1.1" viewBox="0 0 315 80">
  <!-- Generator: Adobe Illustrator 29.5.0, SVG Export Plug-In . SVG Version: 2.1.0 Build 137)  -->
  <defs>
    <style>
      .st0 {
        fill: #0000cd;
      }
    </style>
  </defs>
  <g>
    <path class="st0" d="M0,54.7h7.3c1,0,1.8.2,2.6.5.7.4,1.3.9,1.7,1.5.4.6.6,1.4.6,2.3s-.3,1.9-.8,2.6c-.5.7-1.3,1.2-2.2,1.4,1.1.3,1.9.8,2.5,1.5.6.7.8,1.6.8,2.7s-.2,1.8-.6,2.6c-.4.7-1,1.3-1.8,1.7s-1.6.6-2.7.6H0v-17.3ZM6.8,62.1c.6,0,1.1-.1,1.6-.3.5-.2.8-.6,1.1-1,.3-.4.4-.9.4-1.5,0-.8-.3-1.5-.8-2s-1.2-.7-2.1-.7H2.4v5.6h4.4ZM7.2,70c.9,0,1.6-.3,2.1-.8.5-.6.8-1.3.8-2.2s-.1-1.2-.4-1.6c-.3-.5-.6-.8-1.1-1.1-.5-.3-1-.4-1.6-.4H2.4v6.2h4.8Z"/>
    <path class="st0" d="M19,71.4c-1-.6-1.8-1.4-2.3-2.4-.5-1-.8-2.2-.8-3.6v-10.7h2.4v10.7c0,1.5.4,2.7,1.1,3.6s1.7,1.3,3,1.3,2.4-.4,3.1-1.3c.7-.8,1.1-2,1.1-3.5v-10.7h2.4v10.7c0,1.4-.3,2.6-.8,3.6-.5,1-1.3,1.8-2.3,2.4-1,.6-2.2.8-3.5.8s-2.5-.3-3.5-.8Z"/>
    <path class="st0" d="M34.3,70.9c-1.2-.9-2-2.2-2.3-3.9h2.4c.2,1.1.7,1.9,1.6,2.5.8.6,1.9.9,3.1.9s1.5-.1,2.1-.4c.6-.3,1.1-.6,1.4-1.1s.5-1,.5-1.6-.2-1.3-.6-1.7-1-.7-1.8-.9l-4.2-.7c-1.4-.2-2.4-.7-3.1-1.5-.7-.8-1-1.8-1-2.9s.3-1.9.8-2.7,1.3-1.4,2.2-1.8c.9-.4,2-.6,3.3-.6,1.9,0,3.4.5,4.5,1.4,1.1.9,1.9,2.2,2.2,3.8h-2.4c-.2-1.1-.7-1.9-1.5-2.4s-1.7-.8-2.8-.8-1.5.1-2,.4c-.6.3-1,.6-1.4,1-.3.4-.5,1-.5,1.6s.2,1.2.6,1.6,1,.7,1.8.8l4.2.7c1.4.2,2.4.7,3.1,1.5.7.8,1.1,1.8,1.1,3s-.3,2-.8,2.8c-.5.8-1.3,1.4-2.3,1.9-1,.4-2.1.7-3.4.7-2,0-3.6-.5-4.8-1.4Z"/>
    <path class="st0" d="M48.9,54.7h2.4v17.3h-2.4v-17.3Z"/>
    <path class="st0" d="M55.5,54.7h2.6l8.3,13.7v-13.7h2.3v17.3h-2.6l-8.3-13.7v13.7h-2.3v-17.3Z"/>
    <path class="st0" d="M73,54.7h11v2h-8.6v5.4h8.1v1.9h-8.1v5.9h8.8v2h-11.2v-17.3Z"/>
    <path class="st0" d="M88.8,70.9c-1.2-.9-2-2.2-2.3-3.9h2.4c.2,1.1.7,1.9,1.6,2.5.8.6,1.9.9,3.1.9s1.5-.1,2.1-.4c.6-.3,1.1-.6,1.4-1.1s.5-1,.5-1.6-.2-1.3-.6-1.7-1-.7-1.8-.9l-4.2-.7c-1.4-.2-2.4-.7-3.1-1.5-.7-.8-1-1.8-1-2.9s.3-1.9.8-2.7,1.3-1.4,2.2-1.8c.9-.4,2-.6,3.3-.6,1.9,0,3.4.5,4.5,1.4,1.1.9,1.9,2.2,2.2,3.8h-2.4c-.2-1.1-.7-1.9-1.5-2.4s-1.7-.8-2.8-.8-1.5.1-2,.4c-.6.3-1,.6-1.4,1-.3.4-.5,1-.5,1.6s.2,1.2.6,1.6,1,.7,1.8.8l4.2.7c1.4.2,2.4.7,3.1,1.5.7.8,1.1,1.8,1.1,3s-.3,2-.8,2.8c-.5.8-1.3,1.4-2.3,1.9-1,.4-2.1.7-3.4.7-2,0-3.6-.5-4.8-1.4Z"/>
    <path class="st0" d="M104.6,70.9c-1.2-.9-2-2.2-2.3-3.9h2.4c.2,1.1.7,1.9,1.6,2.5.8.6,1.9.9,3.1.9s1.5-.1,2.1-.4c.6-.3,1.1-.6,1.4-1.1s.5-1,.5-1.6-.2-1.3-.6-1.7-1-.7-1.8-.9l-4.2-.7c-1.4-.2-2.4-.7-3.1-1.5-.7-.8-1-1.8-1-2.9s.3-1.9.8-2.7,1.3-1.4,2.2-1.8c.9-.4,2-.6,3.3-.6,1.9,0,3.4.5,4.5,1.4,1.1.9,1.9,2.2,2.2,3.8h-2.4c-.2-1.1-.7-1.9-1.5-2.4s-1.7-.8-2.8-.8-1.5.1-2,.4c-.6.3-1,.6-1.4,1-.3.4-.5,1-.5,1.6s.2,1.2.6,1.6,1,.7,1.8.8l4.2.7c1.4.2,2.4.7,3.1,1.5.7.8,1.1,1.8,1.1,3s-.3,2-.8,2.8c-.5.8-1.3,1.4-2.3,1.9-1,.4-2.1.7-3.4.7-2,0-3.6-.5-4.8-1.4Z"/>
    <path class="st0" d="M126,70.9c-1.2-.9-2-2.2-2.3-3.9h2.4c.2,1.1.7,1.9,1.6,2.5.8.6,1.9.9,3.1.9s1.5-.1,2.1-.4c.6-.3,1.1-.6,1.4-1.1s.5-1,.5-1.6-.2-1.3-.6-1.7-1-.7-1.8-.9l-4.2-.7c-1.4-.2-2.4-.7-3.1-1.5-.7-.8-1-1.8-1-2.9s.3-1.9.8-2.7,1.3-1.4,2.2-1.8c.9-.4,2-.6,3.3-.6,1.9,0,3.4.5,4.5,1.4,1.1.9,1.9,2.2,2.2,3.8h-2.4c-.2-1.1-.7-1.9-1.5-2.4s-1.7-.8-2.8-.8-1.5.1-2,.4c-.6.3-1,.6-1.4,1-.3.4-.5,1-.5,1.6s.2,1.2.6,1.6,1,.7,1.8.8l4.2.7c1.4.2,2.4.7,3.1,1.5.7.8,1.1,1.8,1.1,3s-.3,2-.8,2.8c-.5.8-1.3,1.4-2.3,1.9-1,.4-2.1.7-3.4.7-2,0-3.6-.5-4.8-1.4Z"/>
    <path class="st0" d="M143.4,71.1c-1.2-.8-2.1-1.8-2.7-3.2-.6-1.4-1-2.9-1-4.7s.3-3.3,1-4.7c.6-1.4,1.6-2.4,2.7-3.2,1.2-.8,2.5-1.1,4-1.1s2.3.2,3.3.7c1,.5,1.8,1.2,2.4,2.1.6.9,1,2,1.3,3.3h-2.4c-.2-1.3-.7-2.3-1.5-3-.8-.7-1.8-1.1-3-1.1s-2,.3-2.8.8-1.4,1.4-1.8,2.4c-.4,1-.6,2.3-.6,3.7s.2,2.6.6,3.7c.4,1,1,1.8,1.8,2.4s1.7.8,2.8.8,2.2-.4,3-1.1c.8-.7,1.3-1.7,1.5-3h2.4c-.2,1.3-.6,2.4-1.3,3.3-.6.9-1.4,1.6-2.4,2.1-1,.5-2.1.7-3.3.7s-2.8-.4-4-1.1Z"/>
    <path class="st0" d="M157.6,71.9v-17.3h2.4v7.4h8.4v-7.4h2.4v17.3h-2.4v-7.8h-8.4v7.8h-2.4Z"/>
    <path class="st0" d="M177.6,71.1c-1.1-.8-2-1.8-2.6-3.2-.6-1.4-.9-2.9-.9-4.6s.3-3.2.9-4.6c.6-1.4,1.5-2.4,2.6-3.2,1.1-.8,2.4-1.2,4-1.2s2.8.4,3.9,1.2,2,1.8,2.6,3.2.9,2.9.9,4.6-.3,3.2-.9,4.6c-.6,1.4-1.5,2.4-2.6,3.2s-2.4,1.2-3.9,1.2-2.8-.4-4-1.2ZM177.2,67c.4,1,.9,1.8,1.7,2.4.7.6,1.6.8,2.7.8s1.9-.3,2.7-.8,1.3-1.3,1.7-2.4c.4-1,.6-2.3.6-3.7s-.2-2.7-.6-3.7c-.4-1-.9-1.8-1.7-2.4s-1.6-.8-2.7-.8-1.9.3-2.7.8c-.7.6-1.3,1.3-1.7,2.4-.4,1-.6,2.3-.6,3.7s.2,2.7.6,3.7Z"/>
    <path class="st0" d="M195,71.1c-1.1-.8-2-1.8-2.6-3.2-.6-1.4-.9-2.9-.9-4.6s.3-3.2.9-4.6c.6-1.4,1.5-2.4,2.6-3.2,1.1-.8,2.4-1.2,4-1.2s2.8.4,3.9,1.2,2,1.8,2.6,3.2.9,2.9.9,4.6-.3,3.2-.9,4.6c-.6,1.4-1.5,2.4-2.6,3.2s-2.4,1.2-3.9,1.2-2.8-.4-4-1.2ZM194.6,67c.4,1,.9,1.8,1.7,2.4.7.6,1.6.8,2.7.8s1.9-.3,2.7-.8,1.3-1.3,1.7-2.4c.4-1,.6-2.3.6-3.7s-.2-2.7-.6-3.7c-.4-1-.9-1.8-1.7-2.4s-1.6-.8-2.7-.8-1.9.3-2.7.8c-.7.6-1.3,1.3-1.7,2.4-.4,1-.6,2.3-.6,3.7s.2,2.7.6,3.7Z"/>
    <path class="st0" d="M209.7,54.7h2.4v15.3h8.9v2h-11.3v-17.3Z"/>
  </g>
  <g>
    <polygon class="st0" points="130.6 8.5 130.6 43.1 153.1 43.1 153.1 37.1 137.2 37.1 137.2 28.4 151.7 28.4 151.7 22.6 137.2 22.6 137.2 14.6 153.1 14.6 153.1 8.5 130.6 8.5"/>
    <path class="st0" d="M103.3,14.1h-4.8v11.7h4.8c3.8,0,6.6-1.8,6.6-5.8s-2.8-5.8-6.6-5.8M103.7,31.4h-5.2v11.8h-6.6V8.5h11.8c7.4,0,13.1,3.3,13.1,11.4s-5.8,11.4-13.1,11.4"/>
    <polygon class="st0" points="210.2 8.5 210.2 14.6 218.3 14.6 218.3 37.1 210.2 37.1 210.2 43.1 233 43.1 233 37.1 224.9 37.1 224.9 14.6 233 14.6 233 8.5 210.2 8.5"/>
    <path class="st0" d="M188.2,19.3c0,4.2-2.4,5.5-6.6,5.5h-5.5v-10.6h5.5c4.5,0,6.6,1.7,6.6,5.1M195.1,19.3c0-8.1-5.5-10.7-12.8-10.7h-12.8v34.6h6.6v-12.8h5.5c.3,0,.6,0,.9,0l6.7,12.8h7.3l-7.4-14.2c3.6-1.6,6-4.7,6-9.7"/>
    <path class="st0" d="M261.9,14.7l4.7,15.3h-9.5l4.7-15.3ZM257.6,8.5l-11.4,34.6h6.9l2.4-7.6h12.9l2.4,7.6h6.9l-11.4-34.6h-8.6Z"/>
    <polygon class="st0" points="292.5 8.5 292.5 43.1 315 43.1 315 37.1 299 37.1 299 8.5 292.5 8.5"/>
    <polygon class="st0" points="65.8 8.5 57.5 28.9 49.2 8.5 39.9 8.5 39.9 43.1 46.1 43.1 46.1 17.3 54.1 35.5 54.4 35.5 60.6 35.5 61 35.5 68.9 17.3 68.9 43.1 75.2 43.1 75.2 8.5 65.8 8.5"/>
    <polygon class="st0" points="0 8.5 0 14.6 8.1 14.6 8.1 37.1 0 37.1 0 43.1 22.8 43.1 22.8 37.1 14.7 37.1 14.7 14.6 22.8 14.6 22.8 8.5 0 8.5"/>
  </g>
</svg>